<?xml version="1.0" encoding="UTF-8" standalone="no"?>
<!-- Created with Inkscape (http://www.inkscape.org/) -->

<svg
   xmlns:dc="http://purl.org/dc/elements/1.1/"
   xmlns:cc="http://creativecommons.org/ns#"
   xmlns:rdf="http://www.w3.org/1999/02/22-rdf-syntax-ns#"
   xmlns:svg="http://www.w3.org/2000/svg"
   xmlns="http://www.w3.org/2000/svg"
   xmlns:xlink="http://www.w3.org/1999/xlink"
   xmlns:sodipodi="http://sodipodi.sourceforge.net/DTD/sodipodi-0.dtd"
   xmlns:inkscape="http://www.inkscape.org/namespaces/inkscape"
   width="64px"
   height="64px"
   id="svg3150"
   version="1.1"
   inkscape:version="0.48.2 r9819"
   sodipodi:docname="New document 2">
  <defs
     id="defs3152">
    <linearGradient
       inkscape:collect="always"
       id="linearGradient7721">
      <stop
         style="stop-color:#000000;stop-opacity:1;"
         offset="0"
         id="stop7723" />
      <stop
         style="stop-color:#000000;stop-opacity:0;"
         offset="1"
         id="stop7725" />
    </linearGradient>
    <filter
       inkscape:collect="always"
       id="filter7729"
       x="-0.54470259"
       width="2.0894051"
       y="-0.21243395"
       height="1.4248679"
       color-interpolation-filters="sRGB">
      <feGaussianBlur
         inkscape:collect="always"
         stdDeviation="3.6276283"
         id="feGaussianBlur7731" />
    </filter>
    <linearGradient
       id="linearGradient7673">
      <stop
         style="stop-color:#ffffff;stop-opacity:1"
         offset="0"
         id="stop7675" />
      <stop
         style="stop-color:#ffffff;stop-opacity:1;"
         offset="1"
         id="stop7677" />
    </linearGradient>
    <filter
       inkscape:collect="always"
       id="filter7669"
       x="-0.072500229"
       width="1.1450005"
       y="-0.21161968"
       height="1.4232394"
       color-interpolation-filters="sRGB">
      <feGaussianBlur
         inkscape:collect="always"
         stdDeviation="2.5008616"
         id="feGaussianBlur7671" />
    </filter>
    <filter
       color-interpolation-filters="sRGB"
       inkscape:collect="always"
       id="filter8564"
       x="-0.09913969"
       width="1.1982794"
       y="-0.14839835"
       height="1.2967967">
      <feGaussianBlur
         inkscape:collect="always"
         stdDeviation="7.1837934"
         id="feGaussianBlur8566" />
    </filter>
    <filter
       color-interpolation-filters="sRGB"
       inkscape:collect="always"
       id="filter8586"
       x="-0.4648405"
       width="1.9296809"
       y="-0.56349128"
       height="2.1269825">
      <feGaussianBlur
         inkscape:collect="always"
         stdDeviation="13.642596"
         id="feGaussianBlur8588" />
    </filter>
    <filter
       color-interpolation-filters="sRGB"
       inkscape:collect="always"
       id="filter8682">
      <feGaussianBlur
         inkscape:collect="always"
         stdDeviation="0.80077951"
         id="feGaussianBlur8684" />
    </filter>
    <linearGradient
       inkscape:collect="always"
       xlink:href="#linearGradient7673"
       id="linearGradient3219"
       gradientUnits="userSpaceOnUse"
       gradientTransform="translate(-42.50524,-436.90459)"
       x1="45.22744"
       y1="538.96661"
       x2="124.44469"
       y2="559.14996" />
    <linearGradient
       inkscape:collect="always"
       xlink:href="#linearGradient7721"
       id="linearGradient3221"
       gradientUnits="userSpaceOnUse"
       gradientTransform="translate(-41.685568,-436.90459)"
       x1="165.77869"
       y1="530.64087"
       x2="165.77869"
       y2="504.18362" />
  </defs>
  <sodipodi:namedview
     id="base"
     pagecolor="#ffffff"
     bordercolor="#666666"
     borderopacity="1.0"
     inkscape:pageopacity="0.0"
     inkscape:pageshadow="2"
     inkscape:zoom="2.75"
     inkscape:cx="96.271507"
     inkscape:cy="-47.953063"
     inkscape:current-layer="layer1"
     showgrid="true"
     inkscape:document-units="px"
     inkscape:grid-bbox="true"
     inkscape:window-width="1920"
     inkscape:window-height="1174"
     inkscape:window-x="0"
     inkscape:window-y="4"
     inkscape:window-maximized="1" />
  <metadata
     id="metadata3155">
    <rdf:RDF>
      <cc:Work
         rdf:about="">
        <dc:format>image/svg+xml</dc:format>
        <dc:type
           rdf:resource="http://purl.org/dc/dcmitype/StillImage" />
        <dc:title></dc:title>
      </cc:Work>
    </rdf:RDF>
  </metadata>
  <g
     id="layer1"
     inkscape:label="Layer 1"
     inkscape:groupmode="layer">
    <g
       id="g3211"
       transform="matrix(0.30409603,0,0,0.30409603,17.90529,24.450746)">
      <path
         sodipodi:nodetypes="csssssssssssssssssccccccsssssssssssccc"
         id="path3640-5"
         d="m 131.85252,-48.326662 c 0.68663,-1.28993 -19.59859,-14.67911 -47.619805,-19.47704 -24.54677,-4.20302 -55.22631,-4.89691 -81.3760944,8.92376 -6.544437,3.45886 -11.469305,6.78158 -16.0205536,10.2299 -12.399978,9.39505 -18.765081,18.62039 -23.902486,25.93293 -5.448467,7.7553 -9.553663,19.4083895 -11.255323,24.7095695 -2.074022,6.461197 -2.490914,12.6862805 -3.432293,19.3530205 -0.612967,4.34097 -0.495379,9.03629 -0.270739,13.93744 0.503401,10.98309 2.885474,22.9542 8.108439,33.93548 3.936231,8.27593 9.076707,16.03972 14.040801,23.08827 8.117077,11.525492 21.4504086,18.979302 29.24854757,22.993732 6.11907703,3.15006 13.71071143,6.56377 26.64215143,8.69193 14.66685,2.41377 36.30562,2.36091 70.95276,-3.0595 9.587335,-1.49991 20.078345,-4.64972 31.810815,-7.06686 0.97585,-0.20105 1.58062,-0.51983 2.3551,-0.72125 0.72,-0.18726 1.36075,-0.0733 1.33543,-0.60327 -0.73358,-15.354382 -0.46645,-32.557652 -0.15874,-40.282432 0.0468,-1.17508 0.3287,-4.81031 0.34184,-6.34764 0.0117,-1.37154 0.72733,-1.20703 1.45425,-1.8405 l 7.17213,-7.06967 -56.147545,-0.81967 -19.67213,11.06558 39.036885,-1.63935 0,43.340162 c 0,0 -15.835695,6.60014 -36.985505,6.14758 -15.55991,-0.33295 -34.2734,-3.9239 -52.358752,-17.520522 -28.382774,-21.33826 -38.336636,-50.88911 -38.500085,-72.22562 -0.08233,-10.74741 -0.364852,-18.9713035 0.48779,-22.4465305 0.751001,-3.06095996 1.960559,-10.49547 5.201832,-18.5347395 4.395588,-10.9023 11.8328996,-22.24825 25.5296446,-31.57686 8.4002004,-5.72123 19.6925504,-11.02765 32.9980304,-12.18348 15.30977,-1.32994 26.12902,0.39919 35.1728,3.91282 22.30147,8.66444 26.767495,15.94297 29.991135,18.47447 0.15872,0.12464 0.87662,0.65627 0.61368,1.03683 -0.31511,0.45606 -0.35409,0.95639 -0.50504,1.22925 -1.41879,2.56449 -5.43651,9.26057 -5.43651,9.26057 l 8.50409,-0.92214 22.64345,-21.92622 z"
         style="fill:#999999;fill-opacity:1;stroke:#ff00ff;stroke-width:0.2;stroke-linecap:butt;stroke-linejoin:miter;stroke-miterlimit:4;stroke-opacity:1;stroke-dasharray:none;display:inline;filter:url(#filter8682)"
         inkscape:connector-curvature="0" />
      <path
         sodipodi:nodetypes="csssssssssssssssssccccccsssssssssssccc"
         id="path3640"
         d="m 130.85541,-50.526015 c 0.68663,-1.28993 -19.59859,-14.67911 -47.619805,-19.47704 -24.54677,-4.20302 -55.22631,-4.89691 -81.3760914,8.92376 -6.544437,3.45886 -11.469305,6.78158 -16.0205536,10.2299 -12.399978,9.39505 -18.765081,18.62039 -23.902486,25.93293 -5.448467,7.7553 -9.553664,19.4083895 -11.255323,24.70956954 -2.074022,6.46119996 -2.490914,12.68627346 -3.432293,19.35301346 -0.612967,4.34097 -0.495379,9.03629 -0.270739,13.93744 0.503401,10.98309 2.885473,22.9542 8.108438,33.93548 3.936232,8.27593 9.076708,16.03972 14.040802,23.08827 8.117077,11.525492 21.4504086,18.979302 29.2485476,22.993732 6.119077,3.15006 13.7107114,6.56377 26.6421584,8.69193 14.66685,2.41377 36.30561,2.36091 70.95275,-3.0595 9.587335,-1.49991 20.078345,-4.64972 31.810815,-7.06686 0.97585,-0.20105 1.58062,-0.51983 2.3551,-0.72125 0.72,-0.18726 1.36075,-0.0733 1.33543,-0.60327 -0.73358,-15.354382 -0.46645,-32.557652 -0.15874,-40.282432 0.0468,-1.17508 0.3287,-4.81031 0.34184,-6.34764 0.0117,-1.37154 0.72733,-1.20703 1.45425,-1.8405 l 7.17213,-7.06967 -56.147545,-0.81967 -19.67213,11.06558 39.036885,-1.63935 0,43.340162 c 0,0 -15.835695,6.60014 -36.985505,6.14758 -15.55991,-0.33295 -34.27339,-3.9239 -52.358749,-17.520522 -28.382774,-21.33826 -38.336636,-50.88911 -38.500085,-72.22562 -0.08233,-10.74741 -0.364852,-18.9712935 0.48779,-22.44652346 0.751001,-3.06096004 1.960559,-10.49547004 5.201832,-18.53473954 4.395588,-10.9023 11.8328996,-22.24825 25.5296446,-31.57686 8.4002004,-5.72123 19.6925574,-11.02765 32.9980274,-12.18348 15.30977,-1.32994 26.12902,0.39919 35.1728,3.91282 22.30147,8.66444 26.767495,15.94297 29.991135,18.47447 0.15872,0.12464 0.87662,0.65627 0.61368,1.03683 -0.31511,0.45606 -0.35409,0.95639 -0.50504,1.22925 -1.41879,2.56449 -5.436505,9.26057 -5.436505,9.26057 l 8.504085,-0.92214 22.64345,-21.92622 z"
         style="fill:#1b4eed;fill-opacity:1;stroke:#ff00ff;stroke-width:0.2;stroke-linecap:butt;stroke-linejoin:miter;stroke-miterlimit:4;stroke-opacity:1;stroke-dasharray:none;display:inline"
         inkscape:connector-curvature="0" />
      <path
         sodipodi:nodetypes="cscssc"
         id="path8568"
         d="m -46.558394,62.718358 c 0,0 61.241073,56.265242 68.896209,57.796272 7.65513,1.53102 -15.6930274,-3.44481 -15.6930274,-3.44481 0,0 -30.2218926,-17.590922 -32.5343196,-19.903352 -1.913783,-1.91379 -16.841295,-23.34816 -16.841295,-26.02746 0,-2.6793 -3.827567,-8.8034 -3.827567,-8.42065 z"
         style="opacity:0.39903846;fill:#000000;stroke:none;display:inline;filter:url(#filter8586)"
         inkscape:connector-curvature="0" />
      <path
         sodipodi:nodetypes="ccssscscsc"
         id="path7589"
         d="m 120.6095,-56.263725 -12.70491,6.14754 c 0,0 -37.704915,-19.67213 -62.295075,-16.39344 -24.59017,3.27868 -50.8196734,9.01639 -66.393444,35.2459 -15.57377,26.2295095 -22.131147,41.39344 -16.803278,64.754103 5.327869,23.36066 -15.163935,0 -15.163935,0 0,0 -5.737705,-41.3934435 27.459017,-75.000003 33.1967206,-33.60656 80.7377,-30.73771 80.7377,-30.73771 0,0 35.65574,2.86886 45.901635,6.14755 10.2459,3.27868 20.90164,10.65573 19.26229,9.83606 z"
         style="opacity:0.28900003;fill:#ffffff;stroke:none;display:inline;filter:url(#filter8564)"
         inkscape:connector-curvature="0" />
      <path
         id="path7627"
         d="m 4.2160706,87.998578 -11.065573,2.04918 c 0,0 26.2295084,22.950822 46.3114774,25.409832 20.08196,2.45902 36.4754,-1.63934 36.4754,-1.63934 0,0 -36.06557,-1.22951 -49.59016,-9.83607 C 12.822629,95.375628 2.9865626,86.769068 4.2160706,87.998578 z"
         style="opacity:0.11499999;fill:url(#linearGradient3219);fill-opacity:1;stroke:none;display:inline;filter:url(#filter7669)"
         inkscape:connector-curvature="0" />
      <path
         sodipodi:nodetypes="ccccccc"
         id="path7683"
         d="m 131.26524,73.244478 -15.16393,5.7377 1.66507,28.639382 -27.258295,7.77405 -5.55432,4.98001 47.131145,-9.83606 -0.81967,-37.295082 z"
         style="opacity:0.16826926;fill:url(#linearGradient3221);fill-opacity:1;stroke:none;display:inline;filter:url(#filter7729)"
         inkscape:connector-curvature="0" />
    </g>
  </g>
</svg>
